<svg xmlns="http://www.w3.org/2000/svg" xml:space="preserve" style="enable-background:new 0 0 490.16 490.16" viewBox="0 0 490.16 490.16"><path d="m435.921 367.401-.081-.001a4 4 0 0 0-4 4c.022 29.625-23.975 53.658-53.6 53.68h-8a4 4 0 0 0 0 8h8c34.002-.044 61.556-27.598 61.6-61.6a4 4 0 0 0-3.919-4.079zM352.16 425.08h-9.68a4 4 0 0 0 0 8h9.68a4 4 0 0 0 0-8z"/><path d="M471.28 314.08H353.52l.4-.68 7.16-7.4a4 4 0 0 0 .76-4.32 4 4 0 0 0-3.68-2.4h-88.68a22.88 22.88 0 0 0-21.32 14.8H22.88v-248C22.902 33.981 48.941 7.978 81.04 8h32.52c30.606.108 55.883 23.934 57.8 54.48h-12a3.995 3.995 0 0 0-2.52.92l-48.92 40.48a4 4 0 0 0-1.2 4.44 4 4 0 0 0 3.76 2.68h129.48a4 4 0 0 0 3.76-2.68 4 4 0 0 0-1.2-4.44l-49-40.48a4 4 0 0 0-2.56-.92h-11.6C177.43 27.469 148.504.053 113.44 0H81.08c-36.524-.022-66.156 29.556-66.2 66.08v298.2c.059 47.697 35.018 88.168 82.2 95.16l-9.96 25.24a4 4 0 0 0 .44 3.72 3.999 3.999 0 0 0 3.28 1.76h22.24a4 4 0 0 0 3.72-2.52l10.72-27.2H362.8l10.72 27.2a4 4 0 0 0 3.72 2.52h21.96a3.999 3.999 0 0 0 3.28-1.76 4 4 0 0 0 .44-3.72l-9.84-25.24c47.182-6.992 82.141-47.463 82.2-95.16v-46.2a4 4 0 0 0-4-4zm-281.6-243.6L229 103H121.6l39.48-32.52h28.6zm65.04 251.6c0-8.152 6.608-14.76 14.76-14.76h79.24l-.8.8-.32.36a22.8 22.8 0 0 0-4.48 13.6v81h-16.4v-13.6a4 4 0 0 0-8 0v13.6h-17.44v-13.6a4 4 0 0 0-8 0v13.6h-17.44v-13.6a4 4 0 0 0-8 0v13.6h-13.12v-81zm-231.84 0h224l-.16 12.08a4.45 4.45 0 0 0-1.64-.32H22.88v-11.76zm87.32 160.08H96.84l8.64-21.92h13.28l-8.56 21.92zm283.12 0h-13.36l-8.56-21.72h13.28l8.64 21.72zm73.8-117.88c-.044 48.593-39.367 88.006-87.96 88.16h-268c-48.546-.132-87.868-39.454-88-88v-22.6h221.92a4.492 4.492 0 0 0 1.64-.36v65.6a4 4 0 0 0 4 4h96.4a4 4 0 0 0 4-4v-65.24h116v22.44zm.16-30.44h-116v-12c.285.108.58.188.88.24h115.12v11.76z"/><path d="M238.92 123.64h-127.4a4 4 0 0 0 0 8h127.4a4 4 0 0 0 0-8zm-120.08 28.44a4 4 0 0 0-4 4v12.4a4 4 0 0 0 8 0v-12.4a4 4 0 0 0-4-4zm0 86.2a4 4 0 0 0-4 4v16.36a4 4 0 0 0 8 0v-16.36a4 4 0 0 0-4-4zm0-40.92a4 4 0 0 0-4 4v4.72a4 4 0 0 0 8 0v-4.72a4 4 0 0 0-4-4zm0 78.76a4 4 0 0 0-4 4v4.96a4 4 0 0 0 8 0v-4.96a4 4 0 0 0-4-4zm28.2-86.44a4 4 0 0 0-4 4v21.64a4 4 0 0 0 8 0v-21.64a4 4 0 0 0-4-4zm0-37.6a4 4 0 0 0-4 4v4.72a4 4 0 0 0 8 0v-4.72a4 4 0 0 0-4-4zm0 79.6a4 4 0 0 0-4 4v4.76a4 4 0 0 0 8 0v-4.76a4 4 0 0 0-4-4zm0 46.52a4 4 0 0 0-4 4v4.76a4 4 0 0 0 8 0v-4.76a4 4 0 0 0-4-4zm56.36-126.12a4 4 0 0 0-4 4v6.32a4 4 0 0 0 8 0v-6.32a4 4 0 0 0-4-4zm0 135.2a4 4 0 0 0-4 4v6.32a4 4 0 0 0 8 0v-6.32a4 4 0 0 0-4-4zm0-58.92a4 4 0 0 0-4 4v10.4a4 4 0 0 0 8 0v-10.4a4 4 0 0 0-4-4zm0-40.92a4 4 0 0 0-4 4v15.2a4 4 0 0 0 8 0v-15.2a4 4 0 0 0-4-4zm28.2-35.36a4 4 0 0 0-4 4v10.68a4 4 0 0 0 8 0v-10.68a4 4 0 0 0-4-4zm0 49.84a4 4 0 0 0-4 4v4.72a4 4 0 0 0 8 0v-4.72a4 4 0 0 0-4-4zm0 75.16a4 4 0 0 0-4 4v4.72a4 4 0 0 0 8 0v-4.72a4 4 0 0 0-4-4zm0-42.72a4 4 0 0 0-4 4v14.24a4 4 0 0 0 8 0v-14.24a4 4 0 0 0-4-4zm-56.36 13.52a4 4 0 0 0-4 4v10.64a4 4 0 0 0 8 0v-10.64a4 4 0 0 0-4-4zm0-49.44a4 4 0 0 0-4 4v4.72a4 4 0 0 0 8 0v-4.72a4 4 0 0 0-4-4zm0-46.36a4 4 0 0 0-4 4v14.24a4 4 0 0 0 8 0v-14.24a4 4 0 0 0-4-4z"/></svg>