<svg xmlns="http://www.w3.org/2000/svg" xml:space="preserve" style="enable-background:new 0 0 478.24 478.24" viewBox="0 0 478.24 478.24"><path d="M288.76 372.124h-95.04a4 4 0 0 0 0 8h95.04a4 4 0 0 0 0-8zm-9.36 21.48h-76.28a4 4 0 0 0 0 8h76.28a4 4 0 0 0 0-8zm-52.28 51.28h-32.36a4 4 0 0 0 0 8h32.36a4 4 0 0 0 0-8z"/><path d="m476.36 169.964-233-144a3.999 3.999 0 0 0-4.24 0l-233 144a3.999 3.999 0 0 0-1.88 3.4v50.48a4 4 0 0 0 4 4h22.12v217.04H4a4 4 0 0 0 0 8h90.72a4 4 0 0 0 0-8H77.48v-187.6H405v187.6h-49.52a14.205 14.205 0 0 0 1.12-5.44v-56.32a84.845 84.845 0 0 0-4-26.08l-1.32-4c9.199-2.54 14.598-12.056 12.058-21.256a17.28 17.28 0 0 0-17.418-12.664h-11.76c-2.04-5.4-12-30.36-26.16-42.92a3.999 3.999 0 0 0-2.64-1H177.12a3.999 3.999 0 0 0-2.64 1c-14.28 12.56-24 37.52-26.16 42.92h-11.76c-9.543-.002-17.281 7.733-17.283 17.277a17.28 17.28 0 0 0 12.083 16.483l-1.36 4a84.845 84.845 0 0 0-4 26.08v56c-.179 7.194 5.487 13.182 12.68 13.4h30.64c7.193-.218 12.859-6.206 12.68-13.4v-7.44h118.6v7.44c-.179 7.194 5.487 13.182 12.68 13.4H471.8a4 4 0 0 0 0-8h-19.68v-216.52h22.12a4 4 0 0 0 4-4v-50.48a3.999 3.999 0 0 0-1.88-3.4zm-297.68 113.4v-.24H303.8c10.52 10 18.6 28 21.76 36H156.92c3.16-7.64 11.24-25.76 21.76-35.76zm-4.92 156.08a5.12 5.12 0 0 1-4.68 5.4h-30.52a5.12 5.12 0 0 1-4.68-5.4v-7.44h40l-.12 7.44zm174.72 0a5.12 5.12 0 0 1-4.68 5.4h-30.52a5.12 5.12 0 0 1-4.68-5.4h-.12v-7.44h40v7.44zm.12-15.28H133.88v-21.04h34.56c7.414-.022 13.418-6.026 13.44-13.44v-9.76c-.022-7.407-6.033-13.4-13.44-13.4h-32.68a83.1 83.1 0 0 1 1.84-6.88l2.64-8 7.32-12.92a4.013 4.013 0 1 0-6.96-4l-6.2 11a9.28 9.28 0 0 1-7.28-9.12 9.32 9.32 0 0 1 9.44-9.48h209.36a9.32 9.32 0 0 1 2.2 18.4l-6.24-11.04a4.013 4.013 0 1 0-6.96 4l7.32 12.92 2.64 8a83.1 83.1 0 0 1 1.84 6.88h-32.68c-7.407 0-13.418 5.993-13.44 13.4v9.6c-.199 7.442 5.673 13.636 13.115 13.835.108.003.217.004.325.005h34.56v21.04zm-214.16-49.64h33.88a5.4 5.4 0 0 1 5.44 5.36v9.64a5.44 5.44 0 0 1-5.276 5.599l-.044.001h-34.56v-12a78.98 78.98 0 0 1 .56-8.6zm214.16 20.6h-34.56a5.44 5.44 0 0 1-5.44-5.44v-9.76a5.4 5.4 0 0 1 5.4-5.4h34.04a78.98 78.98 0 0 1 .56 8.6v12zM58.84 195.844v-17.48h364.8v17.48H58.84zM405 249.284H77.48v-18.52H405v18.52zm0-26.52H77.48v-18.92H405v18.92zm65.24-2.92h-22.12a4 4 0 0 0-4 4v221.04H413v-241.04h14.64a4 4 0 0 0 4-4v-25.48a4 4 0 0 0-4-4H54.84a4 4 0 0 0-4 4v25.48a4 4 0 0 0 4 4h14.64v241.04H38.36v-221.04a4 4 0 0 0-4-4H12.24v-44.28l229-141.52 229 141.52v44.28z"/></svg>