<?xml version="1.0" encoding="iso-8859-1"?>
<!-- Uploaded to: SVG Repo, www.svgrepo.com, Generator: SVG Repo Mixer Tools -->
<svg fill="#000000" height="800px" width="800px" version="1.1" id="Layer_1" xmlns="http://www.w3.org/2000/svg" xmlns:xlink="http://www.w3.org/1999/xlink" 
	 viewBox="0 0 511.999 511.999" xml:space="preserve">
<g>
	<g>
		<path d="M90.59,421.909c-6.304-6.305-14.687-9.776-23.603-9.776c-8.916,0-17.298,3.471-23.602,9.776
			c-13.015,13.015-13.015,34.191,0,47.206c6.304,6.305,14.687,9.776,23.602,9.776c8.916,0,17.299-3.471,23.603-9.776
			c6.305-6.305,9.776-14.687,9.776-23.603C100.366,436.596,96.895,428.214,90.59,421.909z M79.351,457.875
			c-6.817,6.817-17.908,6.818-24.726,0c-6.817-6.818-6.817-17.909,0-24.727c3.409-3.409,7.886-5.113,12.363-5.113
			c4.478,0,8.955,1.704,12.363,5.113C86.168,439.965,86.168,451.058,79.351,457.875z"/>
	</g>
</g>
<g>
	<g>
		<path d="M352.012,159.989c-3.104-3.104-8.136-3.104-11.239,0l-58.445,58.445c-2.894,2.893-3.086,7.673-0.423,10.783
			c2.972,3.47,8.429,3.689,11.662,0.456l58.445-58.445C355.115,168.124,355.115,163.092,352.012,159.989z"/>
	</g>
</g>
<g>
	<g>
		<path d="M377.487,134.512c-3.104-3.104-8.136-3.104-11.239,0l-7.493,7.493c-3.104,3.104-3.104,8.136,0,11.239
			c1.551,1.551,3.586,2.328,5.619,2.328c2.034,0,4.068-0.776,5.619-2.328l7.493-7.493
			C380.591,142.648,380.591,137.615,377.487,134.512z"/>
	</g>
</g>
<g>
	<g>
		<path d="M370.633,275.333c-1.341-1.342-3.119-2.16-5.01-2.305l-38.964-2.998c-2.311-0.176-4.589,0.664-6.229,2.305l-7.868,7.868
			l-6.132-6.132l93.404-105.29c30.514,9.543,64.049,1.468,86.868-21.35c20.85-20.85,29.564-50.538,23.31-79.416
			c-1.304-6.022-9.017-8.311-13.387-3.938l-48.885,48.886c-3.062,3.062-8.177,3.062-11.24,0l-37.464-37.464
			c-3.062-3.062-3.062-8.177,0-11.24l48.886-48.885c4.371-4.37,2.085-12.082-3.938-13.387c-28.879-6.255-58.566,2.459-79.416,23.31
			c-22.818,22.818-30.896,56.352-21.35,86.868l-105.29,93.404l-50.625-50.625c-3.104-3.104-8.136-3.104-11.239,0
			c-3.104,3.104-3.104,8.136,0,11.239l125.261,125.26l-9.741,9.741L97.274,106.875l9.741-9.741l45.947,45.947
			c3.232,3.232,8.689,3.015,11.662-0.456c2.664-3.11,2.471-7.89-0.423-10.783l-50.462-50.461L94.863,36.366
			c-0.725-1.728-2.038-3.145-3.707-4L29.715,0.895c-3.071-1.574-6.804-0.985-9.242,1.454L2.489,20.333
			c-2.439,2.439-3.026,6.173-1.454,9.242l31.47,61.441c0.855,1.669,2.272,2.981,4,3.707L81.519,113.6L203.78,235.861L19.065,399.721
			c-11.573,10.093-18.51,24.684-19.033,40.031c-0.523,15.347,5.404,30.376,16.262,41.234l14.72,14.72
			c10.415,10.416,24.668,16.293,39.359,16.293c0.623,0,1.25-0.011,1.876-0.032c15.347-0.523,29.938-7.461,39.986-18.984
			l79.649-89.785c2.913-3.284,2.612-8.307-0.671-11.219c-3.282-2.913-8.306-2.612-11.219,0.671l-79.694,89.836
			c-7.315,8.388-17.47,13.216-28.593,13.595c-11.138,0.379-21.584-3.746-29.452-11.615l-14.72-14.72
			c-7.87-7.87-11.994-18.329-11.615-29.452c0.379-11.123,5.208-21.278,13.645-28.637l185.477-164.537l8.241,8.241L69.706,389.301
			c-4.994,4.355-2.531,12.818,3.993,13.841c9.008,1.413,17.181,5.57,23.635,12.023c6.257,6.257,10.372,14.168,11.897,22.874
			c1.129,6.441,9.507,8.794,13.818,3.853l133.591-153.174l8.241,8.241l-62.326,70.259c-2.644,2.981-2.639,7.614,0.028,10.58
			c3.129,3.481,8.755,3.47,11.863-0.032l61.696-69.548l4.205,4.205l-7.868,7.868c-1.64,1.64-2.483,3.915-2.305,6.229l2.998,38.964
			c0.145,1.891,0.963,3.669,2.305,5.01l129.175,129.175c7.506,7.506,17.484,11.638,28.098,11.638
			c10.614,0,20.594-4.133,28.099-11.638l38.964-38.964c7.506-7.506,11.638-17.484,11.638-28.099
			c0-10.615-4.133-20.593-11.638-28.098L370.633,275.333z M45.33,81.187L17.821,27.479l9.799-9.799l53.708,27.509l16.295,38.859
			L84.189,97.483L45.33,81.187z M120.361,420.791c-5.906-12.783-16.493-23.242-29.355-28.976l143.541-125.188l10.826,10.827
			L120.361,420.791z M295.172,262.812l-45.985-45.985L356.15,121.94c3.608-1.823,5.296-6.211,3.83-9.979
			c-10.142-26.062-3.929-55.668,15.827-75.425c13.236-13.236,30.841-20.477,49.107-20.634L387.796,53.02
			c-9.296,9.295-9.296,24.422,0,33.718l37.464,37.464c9.295,9.295,24.422,9.295,33.718,0l37.118-37.118
			c-0.157,18.265-7.397,35.872-20.634,49.107c-19.756,19.757-49.36,25.969-75.425,15.827c-3.768-1.467-8.157,0.221-9.979,3.83
			L295.172,262.812z M286.3,328.946l42.785-42.785l18.089,1.391l-59.483,59.484L286.3,328.946z M488.569,449.466l-38.964,38.964
			c-4.504,4.504-10.491,6.983-16.859,6.983c-6.369,0-12.356-2.48-16.859-6.983L292.332,364.873l72.681-72.682l123.557,123.557
			c4.504,4.504,6.983,10.491,6.983,16.859C495.552,438.976,493.072,444.963,488.569,449.466z"/>
	</g>
</g>
<g>
	<g>
		<path d="M467.292,425.942l-97.408-97.408c-4.504-4.504-10.491-6.983-16.859-6.983s-12.357,2.48-16.859,6.983l-7.493,7.493
			c-4.504,4.504-6.983,10.491-6.983,16.859s2.48,12.356,6.983,16.859l97.408,97.408c4.504,4.504,10.491,6.983,16.859,6.983
			c6.369,0,12.357-2.48,16.859-6.983l7.493-7.493c4.504-4.504,6.983-10.491,6.983-16.859
			C474.276,436.432,471.796,430.445,467.292,425.942z M456.053,448.42l-7.493,7.493c-1.502,1.502-3.497,2.328-5.62,2.328
			c-2.122,0-4.119-0.827-5.619-2.328l-97.408-97.408c-1.502-1.502-2.328-3.497-2.328-5.619s0.826-4.119,2.328-5.62l7.493-7.493
			c1.502-1.502,3.497-2.328,5.62-2.328c2.122,0,4.119,0.827,5.619,2.328l97.408,97.408c1.502,1.502,2.328,3.497,2.328,5.619
			C458.381,444.923,457.554,446.92,456.053,448.42z"/>
	</g>
</g>
<g>
	<g>
		<path d="M369.135,357.756l-2.998-2.998c-3.104-3.104-8.136-3.104-11.239,0c-3.104,3.104-3.104,8.136,0,11.239l2.998,2.998
			c1.551,1.551,3.586,2.328,5.619,2.328s4.068-0.776,5.619-2.328C372.239,365.891,372.239,360.858,369.135,357.756z"/>
	</g>
</g>
<g>
	<g>
		<path d="M393.113,381.734l-2.998-2.998c-3.104-3.104-8.136-3.104-11.239,0c-3.104,3.104-3.104,8.136,0,11.239l2.998,2.998
			c1.551,1.551,3.586,2.328,5.619,2.328s4.068-0.776,5.619-2.328C396.217,389.869,396.217,384.836,393.113,381.734z"/>
	</g>
</g>
<g>
	<g>
		<path d="M417.09,405.711l-2.998-2.998c-3.104-3.104-8.136-3.104-11.239,0c-3.104,3.104-3.104,8.136,0,11.239l2.998,2.998
			c1.551,1.551,3.586,2.328,5.619,2.328s4.068-0.776,5.619-2.328C420.194,413.846,420.194,408.813,417.09,405.711z"/>
	</g>
</g>
<g>
	<g>
		<path d="M441.068,429.689l-2.998-2.998c-3.104-3.104-8.136-3.104-11.239,0c-3.104,3.104-3.104,8.136,0,11.239l2.998,2.998
			c1.551,1.551,3.586,2.328,5.619,2.328c2.033,0,4.068-0.776,5.619-2.328C444.172,437.824,444.172,432.791,441.068,429.689z"/>
	</g>
</g>
</svg>