<?xml version="1.0" encoding="iso-8859-1"?>
<!-- Uploaded to: SVG Repo, www.svgrepo.com, Generator: SVG Repo Mixer Tools -->
<!DOCTYPE svg PUBLIC "-//W3C//DTD SVG 1.1//EN" "http://www.w3.org/Graphics/SVG/1.1/DTD/svg11.dtd">
<svg fill="#000000" height="800px" width="800px" version="1.1" id="Capa_1" xmlns="http://www.w3.org/2000/svg" xmlns:xlink="http://www.w3.org/1999/xlink" 
	 viewBox="0 0 477.91 477.91" xml:space="preserve">
<g>
	<path d="M199.396,121.955c7.12,3.125,14.552,4.604,21.87,4.604c21.022,0,41.1-12.204,50.077-32.653
		c5.757-13.113,6.34-26.132,1.784-38.759c2.41-1.366,4.163-3.086,5.308-5.197c3.774-6.963-0.757-15.396-4.494-21.133
		c-10.964-16.834-27.655-26.719-48.271-28.584C223.965,0.078,222.185,0,220.376,0c-13.558,0-27.223,4.203-37.492,11.533
		c-13.692,9.772-21.595,24.99-22.856,44.011c-1.63,24.613,9.928,39.742,12.222,42.484
		C177.558,108.322,186.682,116.373,199.396,121.955z M202.812,114.172c-9.667-4.245-16.856-10.038-21.422-17.253
		c6.564-6.33,7.836-19.435,8.042-22.394c0.091-1.317-0.435-2.602-1.423-3.477c-2.793-2.472-3.661-6.43-2.16-9.851
		c1.366-3.11,4.444-5.121,7.843-5.121c1.182,0,2.337,0.244,3.434,0.726c2.094,0.919,3.704,2.598,4.534,4.728
		c0.83,2.13,0.781,4.456-0.138,6.55l-7.633,17.391c-0.943,2.149,0.034,4.656,2.183,5.6l11.323,4.971
		c2.049,0.898,4.444,0.058,5.477-1.928c0.711-1.364,1.256-3.197,2.011-5.735c2.13-7.159,4.773-14.561,9.49-20.118
		c8.392,5.279,7.888,17.141,7.861,17.664c-0.093,1.583,0.702,3.086,2.063,3.898l7.026,4.196c-2.695-0.211-5.424,0.166-8.018,1.178
		c-4.529,1.766-8.1,5.189-10.053,9.64l-2.173,4.948c-0.944,2.149,0.033,4.656,2.182,5.6c0.556,0.244,1.136,0.359,1.707,0.359
		c1.635,0,3.194-0.949,3.894-2.542l2.173-4.949c1.042-2.372,2.944-4.196,5.357-5.138c2.414-0.939,5.048-0.886,7.42,0.156
		l7.817,3.432c-2.202,1.913-4.572,3.601-7.071,5.054l-5.802-2.548c-2.152-0.944-4.657,0.034-5.601,2.183
		c-0.748,1.705-0.274,3.622,1.02,4.818C224.154,119.126,213.096,118.686,202.812,114.172z M234.067,61.21l32.693,19.448
		c-0.686,3.239-1.744,6.511-3.202,9.831c-0.808,1.841-1.734,3.593-2.745,5.271l-20.11-12.012c-0.238-4.771-1.722-14.783-9.589-21.12
		C232.044,62.101,233.027,61.626,234.067,61.21z M267.665,71.307l-20.333-12.096c0.68,0.009,1.369,0.021,2.022,0.021
		c6.32,0,11.527-0.416,15.753-1.28C266.724,62.385,267.576,66.825,267.665,71.307z M168.51,56.106
		C170.839,20.968,197.906,8.5,220.376,8.5c1.554,0,3.077,0.066,4.527,0.197c18.184,1.646,32.286,9.976,41.914,24.758
		c3.832,5.884,5.304,10.304,4.144,12.443c-0.788,1.453-4.47,4.833-21.607,4.833c-0.947,0-1.926-0.011-2.933-0.03
		c-29.037-0.574-36.51,24.581-39.685,35.253c-0.045,0.151-0.09,0.304-0.136,0.455l-3.221-1.414l5.925-13.498
		c1.832-4.173,1.93-8.809,0.275-13.054c-1.655-4.246-4.865-7.593-9.038-9.424c-2.18-0.957-4.484-1.442-6.851-1.442
		c-6.771,0-12.905,4.006-15.626,10.205c-2.682,6.11-1.566,13.085,2.708,18.014c-0.558,4.675-2.018,10.536-4.183,13.723
		C173.188,84.198,167.419,72.565,168.51,56.106z"/>
	<path d="M65.705,356.962c2.347,0,4.25-1.902,4.25-4.25V293.7c0-2.348-1.903-4.25-4.25-4.25c-2.347,0-4.25,1.902-4.25,4.25v59.012
		C61.455,355.06,63.358,356.962,65.705,356.962z"/>
	<path d="M284.978,269.424c-8.547,0-15.5,6.953-15.5,15.5s6.953,15.5,15.5,15.5c8.547,0,15.5-6.953,15.5-15.5
		S293.524,269.424,284.978,269.424z M284.978,291.924c-3.86,0-7-3.141-7-7s3.14-7,7-7c3.86,0,7,3.141,7,7
		S288.837,291.924,284.978,291.924z"/>
	<path d="M201.809,178.082c9.128-20.621,1.19-46.823-15.959-60.762c-0.878-0.768-4.582-3.978-6.315-5.077
		c-22.062-13.993-46.639-9.762-65.741,11.32c-21.463,23.686-80.618,99.494-81.213,100.258c-1.424,1.826-1.123,4.458,0.677,5.916
		l10.909,8.836v206.998c0,17.832,14.508,32.339,32.34,32.339c17.831,0,32.338-14.507,32.338-32.339V290.96l7.33,5.937
		c0.761,0.616,1.707,0.947,2.675,0.947c0.188,0,0.377-0.013,0.566-0.038c1.159-0.155,2.203-0.782,2.886-1.733l35.705-49.723
		c4.234,3.407,10.721,6.137,18.941,5.215l21.687,14.876c-1.083,5.659-1.407,11.596-1.407,18.483c0,2.348,1.903,4.25,4.25,4.25
		h30.435c2.174,27.381,25.135,49,53.065,49c11.399,0,21.964-3.612,30.636-9.735L422.65,398.48c0.718,0.47,1.525,0.693,2.323,0.693
		c1.386,0,2.745-0.677,3.56-1.923c1.285-1.964,0.735-4.599-1.229-5.884l-104.878-68.63c5.539-5.485,9.884-12.173,12.603-19.638
		l103.769,61.973c0.683,0.408,1.434,0.603,2.175,0.603c1.447,0,2.857-0.739,3.653-2.072c1.204-2.015,0.545-4.624-1.47-5.827
		l-81.379-48.602h80.2c2.347,0,4.25-1.902,4.25-4.25c0-2.348-1.903-4.25-4.25-4.25h-94.333c-0.029,0-0.056,0.008-0.086,0.009
		l-5.874-3.509h29.793c1.148,0,2.247-0.465,3.047-1.288c0.8-0.822,1.233-1.935,1.201-3.082
		c-0.747-26.393-10.587-50.704-27.708-68.455c-16.902-17.524-39.289-27.175-63.04-27.175c-8.956,0-15.902,1.632-23.256,3.359
		c-1.099,0.259-2.215,0.518-3.342,0.775c-4.188-3.209-9.394-5.115-14.967-5.115c-0.693,0-1.396,0.03-2.097,0.089l-45.156,3.875
		l-0.824-9.595C195.336,190.563,200.386,181.296,201.809,178.082z M367.012,288.674h-28.931c0.086-1.24,0.147-2.488,0.147-3.75
		c0-29.362-23.888-53.25-53.25-53.25c-7.971,0-15.532,1.773-22.327,4.925c3.891-4.786,6.014-11.011,5.458-17.617
		c-0.318-3.785-1.499-7.323-3.328-10.435c6.453-1.51,12.66-2.873,20.197-2.873C328.375,205.674,363.674,241.786,367.012,288.674z
		 M76.507,469.41c-13.146,0-23.84-10.694-23.84-23.839v-11.835c0.709,0.53,1.581,0.856,2.535,0.856h45.064
		c0.027,0,0.051-0.008,0.078-0.008v10.986C100.345,458.716,89.651,469.41,76.507,469.41z M100.345,406.182h-7.414
		c-2.347,0-4.25,1.902-4.25,4.25c0,2.348,1.903,4.25,4.25,4.25h7.414v11.419c-0.027,0-0.051-0.008-0.078-0.008H55.202
		c-0.954,0-1.826,0.326-2.535,0.856V245.458l47.678,38.617V406.182z M118.024,287.456l-76.17-61.694
		c11.631-14.859,59.535-75.85,78.239-96.491c16.094-17.761,36.613-21.441,54.889-9.85c0.904,0.573,3.662,2.889,5.331,4.349
		c0.04,0.036,0.082,0.07,0.124,0.104c14.15,11.461,19.97,33.242,13.598,50.769l-0.057,0.108l-2.623-30.559
		c-1.089-12.95-11.665-22.717-24.599-22.717c-0.698,0-1.406,0.03-2.103,0.089c-6.599,0.554-12.597,3.643-16.889,8.698
		c-4.302,5.066-6.365,11.49-5.808,18.094l6.924,80.7c0.331,3.917,1.534,7.539,3.402,10.691l-11.063,15.406l-14.425-11.675
		c-1.824-1.476-4.5-1.193-5.978,0.63c-1.477,1.824-1.194,4.501,0.63,5.978l14.806,11.983l-5.945,8.278L83.448,232.39
		c-1.824-1.479-4.5-1.197-5.978,0.628c-1.477,1.823-1.196,4.5,0.627,5.978l47.246,38.269L118.024,287.456z M173.493,243.272
		c-8.471,0.461-15.423-6.419-16.142-14.938l-6.924-80.7c-0.365-4.326,0.991-8.543,3.818-11.872c2.828-3.33,6.777-5.364,11.123-5.729
		c0.462-0.039,0.93-0.06,1.39-0.06c8.479,0,15.413,6.419,16.129,14.937l5.168,60.207c0.201,2.338,2.255,4.072,4.598,3.871
		l49.383-4.237c0.458-0.039,0.92-0.059,1.377-0.059c8.392,0,15.52,6.589,16.227,15c0.749,8.908-5.922,16.769-14.878,17.523
		C244.761,237.216,191.395,242.299,173.493,243.272z M190.256,250.424l14.644-1.257c-1.595,2.94-2.882,5.781-3.899,8.6
		L190.256,250.424z M215.313,248.273l30.167-2.588c1.526-0.129,3.005-0.4,4.433-0.788c-10.136,8.891-16.872,21.552-18.001,35.776
		H205.78C206.149,266.599,208.556,258.679,215.313,248.273z M284.978,329.674c-24.675,0-44.75-20.075-44.75-44.75
		s20.075-44.75,44.75-44.75c24.675,0,44.75,20.075,44.75,44.75S309.653,329.674,284.978,329.674z"/>
	<path d="M81.187,201.21l46-53c1.539-1.773,1.349-4.457-0.424-5.996c-1.773-1.539-4.458-1.348-5.995,0.424l-46,53
		c-1.538,1.773-1.349,4.457,0.424,5.996c0.804,0.698,1.796,1.04,2.784,1.04C79.165,202.674,80.347,202.178,81.187,201.21z"/>
</g>
</svg>