<svg xmlns="http://www.w3.org/2000/svg" xml:space="preserve" style="enable-background:new 0 0 491.56 491.56" viewBox="0 0 491.56 491.56"><path d="m208.48 106.14-59.52-46.4v-53a4 4 0 0 0-8 0v55.04a4 4 0 0 0 1.56 3.16l52.68 41.04h-32.28a4 4 0 0 0 0 8H202v15.56H8v-15.56h134.76a4 4 0 0 0 0-8h-128l52.72-41.04a4 4 0 0 0 1.56-3.16V6.74a4 4 0 0 0-8 0v53l-59.52 46.4A3.999 3.999 0 0 0 0 109.3v24.24a4 4 0 0 0 4 4h202a4 4 0 0 0 4-4V109.3a3.999 3.999 0 0 0-1.52-3.16z"/><path d="M21.44 118.26h-.48a4 4 0 0 0 0 7.999h.48a4 4 0 0 0 0-7.999zm15.96 0h-.48a4 4 0 0 0 0 7.999h.48a4 4 0 0 0 0-7.999zm167.52 86.68h-200a4 4 0 0 0-4 4v262.44a4 4 0 0 0 4 4h200a4 4 0 0 0 4-4V208.94a4 4 0 0 0-4-4zm-196 8h192v47.48h-192v-47.48zm192 254.44h-192v-42.96h192v42.96zm0-50.96h-192V399.9h59.32v4a4 4 0 0 0 4 4h65.52a4 4 0 0 0 4-4v-4h59.16v16.52zm0-24.52h-63.16a4 4 0 0 0-4 4v4H76.24v-4a4 4 0 0 0-4-4H9.08V268.42h192l-.16 123.48z"/><path d="M175.4 281.94H34.6a4 4 0 0 0 0 8h140.8a4 4 0 0 0 0-8zM39.52 224.86c-6.23 0-11.28 5.05-11.28 11.28-.022 6.208 4.992 11.258 11.2 11.28h.08c6.23 0 11.28-5.05 11.28-11.28 0-6.23-5.05-11.28-11.28-11.28zm0 14.56a3.28 3.28 0 1 1 0-6.56 3.28 3.28 0 0 1 0 6.56zm43.64-14.56c-6.23 0-11.28 5.05-11.28 11.28 0 6.23 5.05 11.28 11.28 11.28 6.23 0 11.28-5.05 11.28-11.28 0-6.23-5.05-11.28-11.28-11.28zm0 14.56a3.28 3.28 0 1 1 0-6.56 3.28 3.28 0 0 1 0 6.56zm43.68-14.56c-6.23 0-11.28 5.05-11.28 11.28 0 6.23 5.05 11.28 11.28 11.28 6.23 0 11.28-5.05 11.28-11.28 0-6.23-5.05-11.28-11.28-11.28zm0 14.56a3.28 3.28 0 1 1 0-6.56 3.28 3.28 0 0 1 0 6.56zm43.68-14.56c-6.23 0-11.28 5.05-11.28 11.28-.022 6.208 4.992 11.258 11.2 11.28h.08c6.23 0 11.28-5.05 11.28-11.28 0-6.23-5.05-11.28-11.28-11.28zm0 14.56a3.28 3.28 0 1 1 0-6.56 3.28 3.28 0 0 1 0 6.56zm13.16 241.4H171a4 4 0 0 0 0 8h12.68a4 4 0 0 0 0-8zm-144.68 0H26.32a4 4 0 0 0 0 8H39a4 4 0 0 0 0-8zm448.56-420H346a4.646 4.646 0 0 0-.8 0 5.621 5.621 0 0 0-.8 0H229.96a4 4 0 0 0-4 4v419.76a4 4 0 0 0 4 4h257.6a4 4 0 0 0 4-4V64.82a4 4 0 0 0-4-4zm-253.6 8H341.2V464.1H233.96V68.82zm249.6 411.76h-249.6v-8.48h249.6v8.48zm0-16.48H349.2V68.82h134.36V464.1z"/><path d="M322.32 215.26h-71.28a4 4 0 0 0-4 4v70.72a4 4 0 0 0 4 4h71.28a4 4 0 0 0 4-4v-70.72a4 4 0 0 0-4-4zm-4 70.72h-63.28v-41.52h6.08v15.52a4 4 0 0 0 4 4h14.24a4 4 0 0 0 4-4v-15.52h6.52v15.52a4 4 0 0 0 4 4h14.24a4 4 0 0 0 4-4v-15.52h6.2v41.52zm-49.2-30v-11.52h6.24v11.52h-6.24zm28.76 0v-11.52h6.24v11.52h-6.24zm20.44-19.52h-63.28v-13.2h63.28v13.2zm57.36-118.32-12-8a4.01 4.01 0 1 0-4.44 6.68l10.2 6.92v300.4a4 4 0 0 0 8 0V121.5a3.999 3.999 0 0 0-1.76-3.36z"/></svg>