<svg xmlns="http://www.w3.org/2000/svg" xml:space="preserve" style="enable-background:new 0 0 486.005 486.005" viewBox="0 0 486.005 486.005"><path d="M294.09 477.805h-117a4 4 0 0 0 0 8h117a4 4 0 0 0 0-8zm-138.68 0h-19a4 4 0 0 0 0 8h19a4 4 0 0 0 0-8zm303.64 0h-37.12a18.08 18.08 0 0 0 3.36-9.24l4.84-73.32c5.943-.725 10.173-6.13 9.448-12.073a10.84 10.84 0 0 0-10.688-9.527h-36v-17.28c24.594-1.081 43.661-21.885 42.6-46.48a4 4 0 0 0-4-4 44.84 44.84 0 0 0-33.52 13.04 42.05 42.05 0 0 0-5.24 6.4v-20c24.574-1.103 43.634-21.862 42.64-46.44a4 4 0 0 0-4-4 44.839 44.839 0 0 0-33.36 13.16 42.05 42.05 0 0 0-5.24 6.4v-10.64c17.403-17.432 17.379-45.671-.053-63.074a44.497 44.497 0 0 0-1.387-1.326 4 4 0 0 0-5.44 0c-18.165 16.636-19.405 44.848-2.769 63.013a44.247 44.247 0 0 0 1.649 1.707v10.08a44.002 44.002 0 0 0-5.12-6.16 44.839 44.839 0 0 0-33.52-13.16 4 4 0 0 0-4 4c-.994 24.578 18.066 45.337 42.64 46.44v20a44.24 44.24 0 0 0-38.64-19.24 4 4 0 0 0-4 4c-.948 24.533 18.111 45.219 42.64 46.28v17.28h-36c-5.987.04-10.807 4.926-10.767 10.912a10.84 10.84 0 0 0 9.527 10.688l4.84 73.32a18.08 18.08 0 0 0 3.36 9.24h-32.68a4 4 0 0 0 0 8h136a4 4 0 0 0 0-8zm-55.4-153.08h.12a36.317 36.317 0 0 1 23.68-10.64c-1.173 18.462-15.897 33.168-34.36 34.32a36.562 36.562 0 0 1 10.56-23.68zm23.68-61.84a36.477 36.477 0 0 1-10.68 24l.08-.2a36.48 36.48 0 0 1-23.68 10.68c1.091-18.495 15.791-33.281 34.28-34.48zm-66.32 24a36.477 36.477 0 0 1-10.68-24c18.477 1.154 33.206 15.883 34.36 34.36a36.475 36.475 0 0 1-23.68-10.36zm0 50.84v.2a36.36 36.36 0 0 1-10.68-23.64c18.479 1.117 33.222 15.842 34.36 34.32a35.996 35.996 0 0 1-23.68-10.88zm27.72-129.68c12.272 13.876 12.272 34.724 0 48.6-12.272-13.875-12.272-34.724 0-48.6zm18.64 269.32a3.713 3.713 0 0 0-1.76.44h-33.56a3.713 3.713 0 0 0-1.76-.44 10.04 10.04 0 0 1-9.96-9.36l-4.8-72.68h4a4 4 0 0 0 0-8h-10.8a2.84 2.84 0 1 1-.008-5.68h80.009a2.84 2.84 0 0 1 3.04 2.84 2.88 2.88 0 0 1-2.84 2.84h-51.28a4 4 0 0 0 0 8h44.52l-4.84 72.68a10.04 10.04 0 0 1-9.961 9.36zM196.41 332.526h-41a4 4 0 0 0 0 8h41a4 4 0 0 0 0-8zm-75.04 81.359h-6.96a4 4 0 0 0 0 8h6.96a4 4 0 0 0 0-8zm-23.8 0H76.33a4 4 0 0 0 0 8h21.24a4 4 0 0 0 0-8z"/><path d="M429.33 157.725h-53.6v-91.68h49a4 4 0 0 0 0-8h-49v-50h49a4 4 0 0 0 0-8h-52.6a3.72 3.72 0 0 0-3.08.92l-338.6 292.52c-9.004 7.724-10.041 21.285-2.316 30.289a21.49 21.49 0 0 0 6.316 5.031h.12a21.558 21.558 0 0 0 22.24-1.4 4 4 0 0 0 1.026-5.563l-.026-.037a4 4 0 0 0-5.56-1c-6.145 4.242-14.565 2.699-18.807-3.446a13.517 13.517 0 0 1-2.393-7.594 13.52 13.52 0 0 1 4.68-10.24l61.12-52.64v145.24h-57.8a4 4 0 0 0 0 8h8v81.88a4 4 0 0 0 4 4h66a4 4 0 0 0 0-8h-62v-78.08h82.76a4 4 0 0 0 4-4v-74.08h92.72a4 4 0 0 0 4-4v-74.08h83.64a4 4 0 0 0 4-4v-74.04h99.16v78.2a4 4 0 0 0 8 0v-82.2a4 4 0 0 0-4-4zm-242.28 156.12h-61.48a4 4 0 0 0 0 8h8.24v70.08h-28.96v-94.08l82.2-70.96v86.96zm0-97.68-82.2 71.08v-47.48l82.2-71.08v47.48zm90.4 19.601h-55.16a4 4 0 0 0 0 8h8.24v70.08h-35.48v-94l82.4-71.08v87zm0-97.56-82.4 71.08v-47.52l82.4-70.88v47.32zm90.28 19.519-45.48.12h-12.16a4 4 0 0 0 0 8h8v69.92h-32.64v-93.92l82.28-70.96v86.84zm0-97.519-82.28 71.08v-47.52l82.28-71.08v47.52z"/></svg>