<?xml version="1.0" ?><!-- Uploaded to: SVG Repo, www.svgrepo.com, Generator: SVG Repo Mixer Tools -->
<svg width="800px" height="800px" viewBox="0 0 100 100" data-name="Layer 1" id="Layer_1" xmlns="http://www.w3.org/2000/svg"><defs><style>.cls-1{fill:#1d1d1b;}</style></defs><path class="cls-1" d="M88.28,9.86H86.74V7.58a5,5,0,0,0-5-5h-71a5,5,0,0,0-5,5v.53H3.86a.5.5,0,0,0-.5.5v8.8a.5.5,0,0,0,.5.5H5.78v.16a5,5,0,0,0,5,5h71a5,5,0,0,0,5-5V15.79h1.54a3,3,0,0,1,2.84,3.14v3.7a3.1,3.1,0,0,1-2.24,3.07L50.06,35a9,9,0,0,0-6.56,8.86v5.44a10.74,10.74,0,0,0-3.42,1.65.49.49,0,0,0-.2.51A49.84,49.84,0,0,1,41,65.2a62.55,62.55,0,0,1-1.37,9.16,42.45,42.45,0,0,0-1.19,12.83,40,40,0,0,0,1.43,8,.45.45,0,0,0,.2.28,11.15,11.15,0,0,0,6,1.89h.17a11.16,11.16,0,0,0,6.17-1.89.45.45,0,0,0,.2-.28,40,40,0,0,0,1.43-8,42.45,42.45,0,0,0-1.19-12.83A62.55,62.55,0,0,1,51.5,65.2a49.84,49.84,0,0,1,1.14-13.75.49.49,0,0,0-.2-.51A11,11,0,0,0,49,49.29V43.85a3.1,3.1,0,0,1,2.24-3.07l38.82-9.29a9,9,0,0,0,6.56-8.86v-3.7C96.64,13.93,92.89,9.86,88.28,9.86ZM85.74,7.58v5.93L77.86,3.6h3.9A4,4,0,0,1,85.74,7.58Zm-61.57-4h11l-.12.08L48.4,22H37.58ZM36.34,22H27L13.62,3.6h9.49L23,3.68ZM36.22,3.6h9.49l-.11.08L59,22H49.63Zm10.55,0h9.49l-.12.08L69.49,22H60.18Zm10.55,0h9.49l-.12.08L80,22H70.73Zm-46.56,0h1.8l-.11.08L25.8,22H16.35L6.91,8.33l-.13.09V7.58A4,4,0,0,1,10.76,3.6ZM4.36,16.91V9.11H5.78v7.8Zm2.42,1.16V9.89L15.13,22H10.76A4,4,0,0,1,6.78,18.07Zm75,4h-.48L67.87,3.6h8.71l9,11.34.14-.12v3.25A4,4,0,0,1,81.76,22ZM40.63,74.56A62.2,62.2,0,0,0,42,65.26a47.55,47.55,0,0,0-.07-6.85l.34.17a2.43,2.43,0,0,1,1.29,2.05,80.93,80.93,0,0,1-.13,12.06,80.14,80.14,0,0,1-2,12.16,2.24,2.24,0,0,1-2,1.78A42.23,42.23,0,0,1,40.63,74.56ZM46.11,96.4a10.2,10.2,0,0,1-5.31-1.62c-.18-.66-.35-1.32-.5-2a8.93,8.93,0,0,1,6.17-2.34,9.07,9.07,0,0,1,5.75,2.34c-.15.66-.32,1.32-.5,2A10,10,0,0,1,46.11,96.4Zm5.78-21.84a42.34,42.34,0,0,1,1.19,12.09l-.25,0a2.23,2.23,0,0,1-2-1.78,79.34,79.34,0,0,1-2.15-24.22A2.43,2.43,0,0,1,50,58.58l.63-.32a48.21,48.21,0,0,0-.08,7A62.2,62.2,0,0,0,51.89,74.56ZM50.7,57.2l-.05-.09-1.14.57a3.46,3.46,0,0,0-1.84,2.89,81.6,81.6,0,0,0,.14,12.21,79.84,79.84,0,0,0,2,12.31,3.24,3.24,0,0,0,2.93,2.54H53a39.26,39.26,0,0,1-.57,4,9.7,9.7,0,0,0-12.36,0,39.64,39.64,0,0,1-.57-4.06,3.23,3.23,0,0,0,2.88-2.53,79.84,79.84,0,0,0,2-12.31,81.6,81.6,0,0,0,.14-12.21,3.46,3.46,0,0,0-1.84-2.89l-.9-.45a53.82,53.82,0,0,0-.9-5.67A9.9,9.9,0,0,1,45.08,50H47.5a9.73,9.73,0,0,1,4.09,1.57A53.22,53.22,0,0,0,50.7,57.2ZM95.64,22.63a8,8,0,0,1-5.79,7.89L51,39.8a4.12,4.12,0,0,0-3,4.05V49h-.44a9.59,9.59,0,0,0-1.22-.09A9.07,9.07,0,0,0,45,49H44.5V43.85A8,8,0,0,1,50.29,36l38.82-9.28a4.12,4.12,0,0,0,3-4.05v-3.7a4,4,0,0,0-3.84-4.14H86.74V10.86h1.54c4.06,0,7.36,3.62,7.36,8.07Z"/></svg>