<svg xmlns="http://www.w3.org/2000/svg" xml:space="preserve" style="enable-background:new 0 0 494.16 494.16" viewBox="0 0 494.16 494.16"><path d="M490.16 315.578h-67v-63.24a4 4 0 0 0-4-4H257.6l72-30.24c10.781-4.51 15.865-16.905 11.355-27.687a21.145 21.145 0 0 0-4.595-6.833l-27.56-27.6 11.48-11.48 6.44 6.44a4 4 0 0 0 2.84 1.16 4 4 0 0 0 2.84-1.16l74.52-74.52c8.955-8.99 8.955-23.53 0-32.52l-1.2-1.2c-8.99-8.955-23.53-8.955-32.52 0l-74.52 74.36a4 4 0 0 0 0 5.64l6.28 6.28-11.48 11.52-27.6-27.6c-8.289-8.27-21.712-8.254-29.981.034a21.214 21.214 0 0 0-4.539 6.766l-53.96 128.64H58.08a4 4 0 0 0 0 8h80.36v59.24H8v-59.24h23.16a4 4 0 0 0 0-8H4a4 4 0 0 0-4 4v67.24a4 4 0 0 0 4 4h67.16v59.36H4a4 4 0 0 0-4 4v67.24a4 4 0 0 0 4 3.88h350a4 4 0 0 0 0-8h-69.12v-59.12h130.28v59.24H381.6a4 4 0 0 0 0 8h37.56a4 4 0 0 0 4-4v-63.24h67a4 4 0 0 0 4-4v-67.36a4 4 0 0 0-4-4zm-205.28-59.24h130.28v59.24H284.88v-59.24zm93.96-208.16c5.879-5.832 15.361-5.832 21.24 0l1.16 1.2c5.832 5.879 5.832 15.361 0 21.24l-71.68 71.68-16-16-6.4-6.4 71.68-71.72zm-67.68 86.48 3.64 4.28-14.32 14.28-25.32 25.44a2.92 2.92 0 0 1-4 0 2.96 2.96 0 0 1 0-4l40-40zm-134.24 135.72 61.88-147.44c2.825-6.72 10.564-9.878 17.284-7.052a13.21 13.21 0 0 1 4.236 2.852l27.56 27.56-22.68 22.68c-4.286 4.286-4.286 11.234 0 15.52s11.234 4.286 15.52 0l22.44-22.84 27.56 27.56c5.143 5.167 5.123 13.525-.044 18.668a13.187 13.187 0 0 1-4.196 2.812l-90.32 37.96-57 23.96a1.68 1.68 0 0 1-1.88-.36 1.6 1.6 0 0 1-.36-1.88zm-30.48-14.04h27.6l-4.6 10.96a9.68 9.68 0 0 0 2.12 10.6 9.44 9.44 0 0 0 10.6 2.08l56.36-23.64h38.36v59.24H146.44v-59.24zm-67.28 67.24h130.28v59.36H79.16v-59.36zm59.28 126.6H8v-59.24h130.44v59.24zm138.44 0H146.44v-59.24h130.44v59.24zm71-67.24H217.44v-59.36l63.44.12h67v59.24zm138.44 0H355.88v-59.36h130.44v59.36z"/><path d="M383.964 73.018a4 4 0 0 0-5.204 0l-16.84 16.84a4 4 0 0 0 0 5.64 4 4 0 0 0 2.84 1.16 3.999 3.999 0 0 0 2.8-1.16l16.84-16.84a4 4 0 0 0-.436-5.64zm-32.724 37.16c-.013 0-.025-.004-.038-.004-.014 0-.028.004-.042.004h.08z"/><path d="M355.961 100.653a4 4 0 0 0-4.801-.034l-2.72 2.72a3.996 3.996 0 0 0 2.762 6.836 3.996 3.996 0 0 0 2.798-1.156l2.72-2.76a4 4 0 0 0-.759-5.606zM255.72 433.898h-45.16a4 4 0 0 0 0 8h45.16a4 4 0 0 0 0-8zm-165.24-96.08a4 4 0 0 0-4 4v28a4 4 0 0 0 8 0v-28a4 4 0 0 0-4-4zm282.68-69.96h-26.72a4 4 0 0 0 0 8h26.72a4 4 0 0 0 0-8zm23.96 0h-6.92a4 4 0 0 0 0 8h6.92a4 4 0 0 0 0-8z"/></svg>