<svg xmlns="http://www.w3.org/2000/svg" xml:space="preserve" style="enable-background:new 0 0 493.68 493.68" viewBox="0 0 493.68 493.68"><path d="m479.841 114.232-.121.001h-11.6v-30.68a4 4 0 0 0-4-4h-40.88V6.393a4 4 0 0 0-4-4H49.56a4 4 0 0 0-4 4v394.08h-1.24c-25.11.641-44.946 21.516-44.305 46.625.563 22.061 16.882 40.535 38.705 43.815a4 4 0 0 0 1.64.36H370.2c.226.019.454.019.68 0h2.64c24.52 0 49.84-16.68 49.84-44.56v-250.6l59.44-13a13.88 13.88 0 0 0 10.88-13.48v-41.56c.001-7.644-6.196-13.84-13.839-13.841zM44.12 483.433c-20.7.009-37.488-16.763-37.497-37.463-.009-20.7 16.763-37.488 37.463-37.497H347.76c-20.7 14.111-26.041 42.33-11.93 63.03a45.349 45.349 0 0 0 11.93 11.93H44.12zm371.24-293.76-36 8a16.64 16.64 0 0 0-13 16v10.8a15.24 15.24 0 0 0-11.28 14.64v103.24c-.432 8.428 6.05 15.61 14.478 16.042s15.61-6.05 16.042-14.478a15.09 15.09 0 0 0 0-1.563v-103.16a15.24 15.24 0 0 0-11.4-14.64v-10.8a8.56 8.56 0 0 1 6.72-8.36l34.44-7.52-.12 249.04c0 22.88-21.28 36.56-41.84 36.56-20.7-.004-37.477-16.788-37.473-37.487.004-19.747 15.328-36.103 35.033-37.393 12.713.725 23.103 10.409 24.72 23.04 1.845 11.406-5.905 22.147-17.311 23.992l-.049.008c-8.628 1.274-16.687-4.597-18.12-13.2-.961-6.481 3.455-12.535 9.92-13.6a4.048 4.048 0 0 0-1.24-8c-10.81 1.762-18.192 11.89-16.56 22.72 1.943 11.494 11.863 19.93 23.52 20 1.245.006 2.49-.087 3.72-.28 15.683-2.52 26.398-17.218 24-32.92-2.191-16.622-16.046-29.244-32.8-29.88H53.56V10.393h361.68v69.16H276a4 4 0 0 0-4 4v30.68h-6.6a4 4 0 0 0 0 8h6.6v30.72a4 4 0 0 0 4 4h25.84v.88c0 10.626 8.614 19.24 19.24 19.24 10.626 0 19.24-8.614 19.24-19.24a6.46 6.46 0 0 0 0-.88h75.04v32.72zm-44.64 160.479a7.28 7.28 0 0 1-7.799-7.8v-103.16a7.24 7.24 0 0 1 7.24-7.24h.04a7.24 7.24 0 0 1 7.24 7.24v103.16a7.281 7.281 0 0 1-6.721 7.8zm-61.08-192.319c.07-1.128.327-2.236.76-3.28a92.554 92.554 0 0 1 10.44-18.12 93.923 93.923 0 0 1 10.44 18.16 10.586 10.586 0 0 1 1 3.24h-.16c0 6.208-5.032 11.24-11.24 11.24s-11.24-5.032-11.24-11.24zm28.2-8.88a125.29 125.29 0 0 0-13.64-22.04 4 4 0 0 0-6.32 0 124.878 124.878 0 0 0-13.68 21.88h-24v-61.24h180l-.08 61.4H337.84zm147.84 20.68a5.88 5.88 0 0 1-4.6 5.68l-57.72 12.6v-30.96h40.88a4 4 0 0 0 4-4v-30.72h11.6a5.88 5.88 0 0 1 5.84 5.84v41.56z"/><path d="M96.24 58.193a4 4 0 0 0-4 4v4a4 4 0 0 0 8 0v-4a4 4 0 0 0-4-4zm0-24.84a4 4 0 0 0-4 4v4a4 4 0 0 0 8 0v-4a4 4 0 0 0-4-4zM85.8 47.793h-4a4 4 0 0 0 0 8h4a4 4 0 0 0 0-8zm24.88 0h-4a4 4 0 0 0 0 8h4a4 4 0 0 0 0-8zm77.12 10.4a4 4 0 0 0-4 4v4a4 4 0 0 0 8 0v-4a4 4 0 0 0-4-4zm0-24.84a4 4 0 0 0-4 4v4a4 4 0 0 0 8 0v-4a4 4 0 0 0-4-4zm-10.4 14.44h-4a4 4 0 0 0 0 8h4a4 4 0 0 0 0-8zm24.8 0h-4a4 4 0 0 0 0 8h4a4 4 0 0 0 0-8zm77.16 10.44a4 4 0 0 0-4 4v4a4 4 0 0 0 8 0v-4a4 4 0 0 0-4-4zm0-24.84a4 4 0 0 0-4 4v4a4 4 0 0 0 8 0v-4a4 4 0 0 0-4-4zm-10.44 14.4h-4a4 4 0 0 0 0 8h4a4 4 0 0 0 0-8zm24.84 0h-4a4 4 0 0 0 0 8h4a4 4 0 0 0 0-8zm77.2 10.44a4 4 0 0 0-4 4v4a4 4 0 0 0 8 0v-4a4 4 0 0 0-4-4zm0-24.84a4 4 0 0 0-4 4v4a4 4 0 0 0 8 0v-4a4 4 0 0 0-4-4zm-10.48 14.4h-4a4 4 0 0 0 0 8h4a4 4 0 0 0 0-8zm24.88 0h-4a4 4 0 0 0 0 8h4a4 4 0 0 0 0-8zm-228.12 63.8-2.84-2.84a4 4 0 0 0-5.64 0 4 4 0 0 0-.023 5.657l.023.023 2.84 2.84a4.003 4.003 0 0 0 5.64-5.68zm-17.4-17.56-2.84-2.84a4 4 0 0 0-5.657-.023l-.023.023a4 4 0 0 0 0 5.64l2.88 2.84a4 4 0 0 0 2.8 1.2 4 4 0 0 0 2.84-6.84zm.023 14.743-.023-.023a4 4 0 0 0-5.64 0l-2.88 2.84a4 4 0 0 0-.023 5.657l.023.023a4 4 0 0 0 5.657.023l.023-.023 2.84-2.84a4 4 0 0 0 .023-5.657zm17.814-17.583a4 4 0 0 0-6.076 0l-2.84 2.84a4 4 0 0 0 0 5.64 4 4 0 0 0 2.8 1.2 4 4 0 0 0 2.84-1.2l2.84-2.84a4 4 0 0 0 .436-5.64zm90.483 20.4-2.84-2.84a4.017 4.017 0 0 0-5.68 5.68l2.88 2.84a4.002 4.002 0 1 0 5.64-5.68zm-17.56-17.56-2.88-2.84a4 4 0 1 0-5.52 5.64l2.72 2.84a4.003 4.003 0 0 0 5.68-5.64zm0 14.72a4.017 4.017 0 0 0-5.68 0l-2.84 2.84a4.003 4.003 0 0 0 5.64 5.68l2.88-2.84a4.015 4.015 0 0 0 0-5.68zm17.997-17.56a4 4 0 0 0-6.076 0l-2.88 2.84a4 4 0 0 0 2.84 6.84 4 4 0 0 0 2.84-1.2l2.84-2.84a4 4 0 0 0 .436-5.64zM96.24 162.913a4 4 0 0 0-4 4v4a4 4 0 0 0 8 0v-4a4 4 0 0 0-4-4zm0-24.68a4 4 0 0 0-4 4v4a4 4 0 0 0 8 0v-4a4 4 0 0 0-4-4zm-10.44 14.44h-4a4 4 0 0 0 0 8h4a4 4 0 0 0 0-8zm24.88 0h-4a4 4 0 0 0 0 8h4a4 4 0 0 0 0-8zm77.12 10.24a4 4 0 0 0-4 4v4a4 4 0 0 0 8 0v-4a4 4 0 0 0-4-4zm0-24.68a4 4 0 0 0-4 4v4a4 4 0 0 0 8 0v-4a4 4 0 0 0-4-4zm-10.4 14.44h-4a4 4 0 0 0 0 8h4a4 4 0 0 0 0-8zm24.8 0h-4a4 4 0 0 0 0 8h4a4 4 0 0 0 0-8zm-44.96 63.8-2.84-2.84a4 4 0 0 0-5.64 0 4 4 0 0 0-.023 5.657l.023.023 2.84 2.84a4.003 4.003 0 0 0 5.64-5.68zm-17.56-17.56-2.84-2.84a4 4 0 0 0-5.657-.023l-.023.023a4 4 0 0 0 0 5.64l3.04 2.84a4 4 0 0 0 2.8 1.2 3.999 3.999 0 0 0 2.68-6.84zm.183 14.743-.023-.023a4 4 0 0 0-5.64 0l-2.88 2.84a4 4 0 0 0-.023 5.657l.023.023a4 4 0 0 0 5.657.023l.023-.023 2.84-2.84a4 4 0 0 0 .023-5.657zm16.941-17.583a4.002 4.002 0 0 0-5.204 0l-2.84 2.84a4 4 0 0 0 0 5.64 4 4 0 0 0 2.8 1.2 4 4 0 0 0 2.84-1.2l2.84-2.84a4 4 0 0 0-.436-5.64zm91.356 20.4-2.84-2.84a4.017 4.017 0 0 0-5.68 5.68l2.88 2.84a4.003 4.003 0 0 0 5.64-5.68zm-17.56-17.56-2.88-2.84a4 4 0 0 0-5.52 5.64l2.72 2.84a4.003 4.003 0 0 0 5.68-5.64zm0 14.72a4.017 4.017 0 0 0-5.68 0l-2.84 2.84a4.003 4.003 0 0 0 5.64 5.68l2.88-2.84a4.015 4.015 0 0 0 0-5.68zm17.124-17.56a4.002 4.002 0 0 0-5.204 0l-2.88 2.84a4 4 0 0 0 2.84 6.84 4 4 0 0 0 2.84-1.2l2.84-2.84a4 4 0 0 0-.436-5.64zm91.379 20.423-.023-.023-2.88-2.84a4 4 0 0 0-5.64 0 4 4 0 0 0-.023 5.657l.023.023 2.84 2.84a4 4 0 0 0 5.657.023l.023-.023a4 4 0 0 0 .023-5.657zm-17.623-17.583-2.84-2.84a4 4 0 0 0-5.64 5.64l2.84 2.84a4 4 0 0 0 2.84 1.2 4 4 0 0 0 2.8-1.2 4 4 0 0 0 0-5.64zm.024 14.743-.023-.023a4 4 0 0 0-5.64 0l-2.84 2.84a4.003 4.003 0 0 0 5.64 5.68l2.84-2.84a4.001 4.001 0 0 0 .023-5.657zm17.576-17.583a4 4 0 0 0-5.657-.023l-.023.023-2.84 2.84a4 4 0 0 0 2.84 6.84 4 4 0 0 0 2.8-1.2l2.88-2.84a4 4 0 0 0 0-5.64zm-242.84 71.88a4 4 0 0 0-4 4v4a4 4 0 0 0 8 0v-4a4 4 0 0 0-4-4zm0-24.84a4 4 0 0 0-4 4v4a4 4 0 0 0 8 0v-4a4 4 0 0 0-4-4zm-10.44 14.44h-4a4 4 0 0 0 0 8h4a4 4 0 0 0 0-8zm24.88 0h-4a4 4 0 0 0 0 8h4a4 4 0 0 0 0-8zm77.12 10.4a4 4 0 0 0-4 4v4a4 4 0 0 0 8 0v-4a4 4 0 0 0-4-4zm0-24.84a4 4 0 0 0-4 4v4a4 4 0 0 0 8 0v-4a4 4 0 0 0-4-4zm-10.4 14.44h-4a4 4 0 0 0 0 8h4a4 4 0 0 0 0-8zm24.8 0h-4a4 4 0 0 0 0 8h4a4 4 0 0 0 0-8zm77.16 10.4a4 4 0 0 0-4 4v4a4 4 0 0 0 8 0v-4a4 4 0 0 0-4-4zm0-24.84a4 4 0 0 0-4 4v4a4 4 0 0 0 8 0v-4a4 4 0 0 0-4-4zm-10.4 14.44h-4a4 4 0 0 0 0 8h4a4 4 0 0 0 0-8zm24.84 0h-4a4 4 0 0 0 0 8h4a4 4 0 0 0 0-8zM96.24 372.833a4 4 0 0 0-4 4v4a4 4 0 0 0 8 0v-4a4 4 0 0 0-4-4zm0-24.84a4 4 0 0 0-4 4v4a4 4 0 0 0 8 0v-4a4 4 0 0 0-4-4zm-10.44 14.44h-4a4 4 0 0 0 0 8h4a4 4 0 0 0 0-8zm24.88 0h-4a4 4 0 0 0 0 8h4a4 4 0 0 0 0-8zm77.12 10.4a4 4 0 0 0-4 4v4a4 4 0 0 0 8 0v-4a4 4 0 0 0-4-4zm0-24.84a4 4 0 0 0-4 4v4a4 4 0 0 0 8 0v-4a4 4 0 0 0-4-4zm-10.4 14.44h-4a4 4 0 0 0 0 8h4a4 4 0 0 0 0-8zm24.8 0h-4a4 4 0 0 0 0 8h4a4 4 0 0 0 0-8zm77.16 10.4a4 4 0 0 0-4 4v4a4 4 0 0 0 8 0v-4a4 4 0 0 0-4-4zm0-24.84a4 4 0 0 0-4 4v4a4 4 0 0 0 8 0v-4a4 4 0 0 0-4-4zm-10.4 14.44h-4a4 4 0 0 0 0 8h4a4 4 0 0 0 0-8zm24.84 0h-4a4 4 0 0 0 0 8h4a4 4 0 0 0 0-8zm77.16 10.4a4 4 0 0 0-4 4v4a4 4 0 0 0 8 0v-4a4 4 0 0 0-4-4zm-10.44-10.4h-4a4 4 0 0 0 0 8h4a4 4 0 0 0 0-8zm24.84 0h-4a4 4 0 0 0 0 8h4a4 4 0 0 0 0-8zm-228.12-41.08-2.84-2.84a4 4 0 0 0-5.64 5.64l2.84 2.88a4.002 4.002 0 1 0 5.64-5.68zm-17.4-17.56-2.84-2.84a4 4 0 0 0-5.657-.023l-.023.023a4 4 0 0 0 0 5.64l2.88 2.84a4 4 0 0 0 2.8 1.2 4 4 0 0 0 2.84-6.84zm-.436 14.72a4 4 0 0 0-5.203 0l-2.88 2.84a4 4 0 0 0-.023 5.657l.023.023a4 4 0 0 0 5.657.023l.023-.023 2.84-2.88a4 4 0 0 0-.437-5.64zm17.4-17.56a4 4 0 0 0-5.204 0l-2.84 2.84a4 4 0 0 0 0 5.64 4 4 0 0 0 2.8 1.2 4 4 0 0 0 2.84-1.2l2.84-2.84a4 4 0 0 0-.436-5.64zm91.356 20.4-2.84-2.84a4 4 0 0 0-5.657-.023l-.023.023a4 4 0 0 0 0 5.64l2.88 2.88a4.002 4.002 0 1 0 5.64-5.68zm-17.56-17.56-2.88-2.84a4 4 0 1 0-5.52 5.64l2.72 2.84a4.003 4.003 0 0 0 5.68-5.64zm0 14.6a4 4 0 0 0-5.656.095l-.024.025-2.84 2.84a4 4 0 0 0 5.64 5.56l2.88-2.88a4 4 0 0 0 0-5.64zm17.124-17.44a4 4 0 0 0-5.204 0l-2.88 2.84a4 4 0 0 0 2.84 6.84 4 4 0 0 0 2.84-1.2l2.84-2.84a4 4 0 0 0-.436-5.64zm91.379 20.423-.023-.023-2.88-2.84a4 4 0 0 0-5.64 5.64l2.84 2.88a4 4 0 0 0 5.657.023l.023-.023a4 4 0 0 0 .023-5.657zm-17.623-17.583-2.84-2.84a4 4 0 0 0-5.64 5.64l2.84 2.84a4 4 0 0 0 2.84 1.2 4 4 0 0 0 2.8-1.2 4 4 0 0 0 0-5.64zm-.436 14.6a4 4 0 0 0-5.204 0v.12l-2.84 2.84a4 4 0 0 0 5.64 5.56l2.84-2.88a4 4 0 0 0-.436-5.64zm18.036-17.44a4 4 0 0 0-5.657-.023l-.023.023-2.84 2.84a4 4 0 0 0 2.84 6.84 4 4 0 0 0 2.8-1.2l2.88-2.84a4 4 0 0 0 0-5.64zm103.12-200.88h-39.24a4 4 0 0 0-3.84 4 4 4 0 0 0 4 4h39.08a4 4 0 0 0 0-8zm-62.32 0h-8.72a4 4 0 0 0 0 8h8.72a4 4 0 0 0 0-8z"/></svg>